# xmcd CD database file
#
# Track frame offsets:
#	150
#	11867
#	25389
#	37619
#	47279
#	60594
#	76707
#	91137
#	102437
#	122279
#	136477
#	153887
#	169069
#	191570
#
# Disc length: 3380 seconds
#
# Revision: 2
# Processed by: cddbd v1.5.1PL0 Copyright (c) Steve Scherf et al.
# Submitted via: CDex 1.51
#
DISCID=9b0d320e
DTITLE=Duo Komari - Song ni moc
DYEAR=1999
DGENRE=Country
TTITLE0=Song nic moc uspesneho chlapa
TTITLE1=Ve znaku medveda
TTITLE2=Adie 
TTITLE3=Vitecka hraz
TTITLE4=Zapal svicku
TTITLE5=Kornaticka reviera
TTITLE6=Konec vikendu
TTITLE7=Smolny den divky Pe
TTITLE8=How do you do
TTITLE9=Osadni koleda
TTITLE10=Zustan
TTITLE11=Andelska
TTITLE12=Udoli v nalade
TTITLE13=Data
EXTD=YEAR: 1999
EXTT0=
EXTT1=
EXTT2=
EXTT3=
EXTT4=
EXTT5=
EXTT6=
EXTT7=
EXTT8=
EXTT9=
EXTT10=
EXTT11=
EXTT12=
EXTT13=
PLAYORDER=
